Land_normalized_Motion_pl15
version=1
nRows=19
nColumns=43
inDegrees=yes
endheader
time		pelvis_tilt		pelvis_list		pelvis_rotation		pelvis_tx		pelvis_ty		pelvis_tz		hip_flexion_r		hip_adduction_r		hip_rotation_r		knee_angle_r		ankle_angle_r		subtalar_angle_r		mtp_angle_r		hip_flexion_l		hip_adduction_l		hip_rotation_l		knee_angle_l		ankle_angle_l		subtalar_angle_l		mtp_angle_l		lumbar_extension		lumbar_bending		lumbar_rotation		neck_flexion		neck_lateral_bending		neck_rotation		arm_flex_r		arm_add_r		arm_rot_r		elbow_flex_r		pro_sup_r		wrist_flex_r		wrist_dev_r		hand_finger_flex_r		arm_flex_l		arm_add_l		arm_rot_l		elbow_flex_l		pro_sup_l		wrist_flex_l		wrist_dev_l		hand_finger_flex_l		
1.070833		-1.324040		6.428816		85.431176		0.012362		0.659854		0.547024		66.334944		2.563619		2.562727		-105.027073		9.994120		-1.504184		31.130981		63.689544		-6.281192		1.611332		-104.477981		8.645278		10.525618		32.390213		-50.613090		-5.208318		-1.511326		-5.028401		-0.877658		2.381109		-11.077295		-31.253557		-21.066934		76.587473		113.893408		-14.010503		-1.790528		31.740905		-19.307735		-17.131091		-28.191104		70.651585		86.998236		-18.995116		-9.325061		27.346237		
1.074192		-1.172620		6.560822		85.426595		0.012240		0.653372		0.546178		67.048648		2.655650		2.644353		-106.219184		9.952153		-0.655214		31.985965		64.485861		-6.544276		1.870301		-105.757624		8.734993		10.981628		32.721174		-51.709023		-5.081017		-1.479564		-3.629432		-0.836634		2.192338		-7.996109		-31.915961		-19.251518		76.482115		114.269600		-13.894669		-1.783177		31.865956		-17.088131		-17.985803		-27.095149		71.148719		86.797194		-19.286845		-9.079235		27.272797		
1.077551		-0.915309		6.638785		85.490241		0.012062		0.646942		0.545260		67.773745		2.742843		2.617787		-107.378228		9.938502		0.309367		33.043932		65.353324		-6.801569		2.284005		-107.036487		8.862072		11.572255		33.120160		-52.702287		-4.804849		-1.498240		-2.365303		-0.875662		2.122322		-4.750604		-32.575693		-17.241908		76.291204		114.770353		-13.818639		-1.763616		32.043956		-14.974667		-18.775378		-26.101279		71.729526		86.682775		-19.744270		-8.851109		27.137431		
1.080909		-0.777283		6.700737		85.587694		0.012040		0.640417		0.544205		68.567421		2.774150		2.647115		-108.616066		9.807650		0.951645		33.660560		66.209280		-6.991375		2.574760		-108.285209		8.997801		11.909167		33.373248		-53.593138		-4.636541		-1.439648		-1.258870		-0.856356		1.858223		-1.768363		-33.162899		-15.439509		76.190796		115.234555		-13.631369		-1.765850		32.173180		-12.844865		-19.818747		-24.861300		72.329310		86.989760		-19.783019		-8.709950		27.107660		
1.084268		-0.626156		6.747830		85.705543		0.011909		0.634077		0.543141		69.346704		2.736666		2.641214		-109.811254		9.714124		1.815014		34.710440		67.046715		-7.157485		2.899681		-109.479118		9.167563		12.445702		33.845517		-54.422544		-4.408942		-1.592503		-0.297958		-0.976973		1.868727		1.591077		-33.756654		-13.180815		75.889214		115.902036		-13.684601		-1.660198		32.400539		-10.897784		-20.706960		-23.920309		73.051254		87.441872		-20.240817		-8.593879		26.996289		
1.087626		-0.630252		6.784648		85.787845		0.011906		0.627793		0.542054		70.173172		2.639937		2.723227		-111.020209		9.562131		2.433686		35.520711		67.821670		-7.306352		3.008898		-110.599052		9.323941		12.796264		34.291676		-55.189189		-4.352811		-1.707665		0.541816		-1.056679		1.782099		4.771940		-34.293148		-11.064410		75.646952		116.499053		-13.737840		-1.525296		32.615931		-8.905343		-21.751369		-22.832559		73.792314		88.208892		-20.466243		-8.517460		27.036008		
1.090985		-0.752980		6.773101		85.839227		0.011973		0.621566		0.540961		71.054308		2.492732		2.863673		-112.198807		9.438796		2.916948		36.215966		68.581803		-7.467743		2.936826		-111.649496		9.496672		13.112865		34.756486		-55.849187		-4.403779		-1.919896		1.241403		-1.148691		1.779066		8.000027		-34.749585		-8.848925		75.371982		117.128864		-13.883346		-1.280740		32.794936		-6.942280		-22.814425		-21.820064		74.538778		89.294578		-20.754466		-8.417800		27.219360		
1.094343		-0.948674		6.693017		85.845797		0.012086		0.615295		0.539895		72.017078		2.315425		3.004059		-113.340546		9.316321		3.233782		36.811729		69.365883		-7.658554		2.738709		-112.647177		9.672764		13.384461		35.212293		-56.391454		-4.541443		-2.130183		1.829624		-1.263674		1.787556		11.190009		-35.171626		-6.623039		75.081142		117.734706		-14.045236		-0.953571		32.948574		-4.972355		-23.885581		-20.819852		75.307859		90.573395		-20.992252		-8.261938		27.599194		
1.097702		-1.171722		6.519131		85.819400		0.012260		0.608887		0.538870		73.078656		2.123282		3.098773		-114.441834		9.221843		3.366048		37.344391		70.229714		-7.904772		2.475788		-113.618341		9.870490		13.611913		35.664303		-56.790977		-4.718892		-2.320754		2.313050		-1.392937		1.811805		14.333450		-35.557126		-4.404745		74.794890		118.289165		-14.184393		-0.568437		33.098288		-2.989006		-24.947977		-19.837983		76.071210		91.986587		-21.115696		-8.007995		28.201659		
1.101061		-1.354984		6.264856		85.796628		0.012534		0.602496		0.537915		74.171107		1.928184		3.067608		-115.462777		9.245273		3.338096		37.751123		71.150031		-8.193231		2.229030		-114.548148		10.096141		13.748763		36.036695		-57.104264		-4.874906		-2.410643		2.885777		-1.450947		1.834547		17.305361		-35.822548		-2.484310		74.576597		118.709214		-14.202594		-0.259438		33.230595		-0.897251		-26.019674		-18.783190		76.775879		93.252005		-20.975984		-7.712689		28.871579		
1.104419		-1.490851		5.851571		85.763323		0.012751		0.595711		0.537008		75.431183		1.740582		2.941022		-116.454692		9.272397		3.175319		38.181561		72.254478		-8.536845		2.008613		-115.491587		10.389628		13.885050		36.490858		-57.189033		-4.972926		-2.576180		3.301188		-1.591677		2.044628		20.450723		-36.078052		-0.202491		74.249638		119.059904		-14.328826		0.186249		33.354647		0.998952		-26.965201		-18.051039		77.618379		94.937520		-20.762203		-7.185972		29.839036		
1.107778		-1.604276		5.425362		85.691692		0.012979		0.588953		0.536073		76.666373		1.595147		2.778859		-117.414559		9.341402		2.956531		38.452255		73.316827		-8.958284		1.723013		-116.427771		10.889629		13.894336		36.869708		-57.175019		-5.061500		-2.562549		3.454969		-1.852668		1.953764		23.383103		-36.311060		1.763204		73.948065		119.317878		-14.164773		0.449081		33.548053		3.128460		-27.874718		-17.034282		78.176634		96.112660		-20.391089		-6.679604		30.556006		
1.111136		-1.651339		4.953980		85.649839		0.013240		0.582288		0.535215		77.874498		1.431988		2.502717		-118.312752		9.567427		2.722630		38.521028		74.376342		-9.384693		1.519007		-117.311024		11.495371		13.822099		37.073718		-57.148406		-5.099399		-2.481286		3.814942		-2.002297		1.958713		26.155906		-36.431700		3.413746		73.721376		119.512470		-13.922247		0.602699		33.642660		5.244958		-28.827203		-15.928657		78.818723		97.005254		-19.932189		-6.239204		30.925483		
1.114495		-1.655133		4.463988		85.604402		0.013455		0.575773		0.534381		79.039671		1.286428		2.169718		-119.157545		9.861975		2.473735		38.540623		75.384516		-9.807276		1.333397		-118.151665		12.245896		13.690176		37.286819		-57.086920		-5.095554		-2.395557		4.145462		-2.185361		1.994955		28.943386		-36.449050		5.021173		73.432235		119.612959		-13.765757		0.753176		33.730465		7.342019		-29.678506		-14.936645		79.456600		97.885113		-19.494002		-5.770379		31.255127		
1.117854		-1.587045		3.968467		85.544671		0.013528		0.569446		0.533537		80.137579		1.191682		1.797430		-119.930251		10.213521		2.211441		38.403546		76.314579		-10.251809		1.166727		-118.957493		13.300919		13.480091		37.521311		-56.973780		-5.021611		-2.244657		4.325458		-2.424239		2.011168		31.742981		-36.399184		6.639157		73.017409		119.551844		-13.781217		0.941172		33.835667		9.456546		-30.343096		-14.045589		80.014053		98.716768		-19.182760		-5.232018		31.452458		
1.121212		-1.573816		3.594501		85.519528		0.013640		0.563673		0.532674		81.028082		1.056193		1.472482		-120.669636		10.740892		2.002744		38.300160		76.997394		-10.635953		0.929634		-119.653494		14.277041		13.242920		37.632980		-57.059577		-5.008807		-2.048746		4.801906		-2.521714		1.942265		34.225137		-36.303831		7.716492		72.795852		119.637926		-13.692238		1.025434		33.899501		11.675526		-31.169044		-12.852357		80.610928		99.245185		-18.828062		-5.031738		31.537558		
1.124571		-1.541628		3.240561		85.452524		0.013647		0.558128		0.531760		81.853829		0.955971		1.142233		-121.366030		11.301521		1.755331		38.092413		77.574317		-11.023887		0.685677		-120.316975		15.507659		12.972301		37.747047		-57.115423		-4.993916		-1.786797		5.091357		-2.673803		1.819581		36.695634		-36.192657		8.803629		72.476988		119.691764		-13.727384		1.228151		33.951037		13.959785		-31.786429		-11.716687		81.087650		99.781134		-18.657910		-4.772281		31.536281		
1.127929		-1.480318		2.974815		85.355905		0.013480		0.553124		0.530872		82.496966		0.900267		0.829817		-121.963344		11.908168		1.448893		37.520723		77.989408		-11.416814		0.438343		-120.932912		16.851453		12.791050		37.914923		-57.274098		-4.954102		-1.462775		5.338885		-2.834601		1.631929		39.154737		-36.087501		9.909759		72.147786		119.536376		-14.170782		1.651374		34.066151		16.326989		-32.224691		-10.587379		81.475234		100.399790		-18.775344		-4.435925		31.436111		
1.131288		-1.517882		2.726116		85.304027		0.013419		0.548357		0.530016		83.104743		0.781758		0.588869		-122.558180		12.627601		1.141526		37.288235		78.354352		-11.722360		0.126531		-121.462550		17.867423		12.546057		37.982452		-57.511590		-4.988134		-1.246465		5.887065		-2.924257		1.494769		41.445304		-35.868829		10.605480		71.926054		119.622257		-14.154882		1.806518		34.134549		18.687771		-32.833086		-9.387729		81.918412		100.783737		-18.560766		-4.312503		31.440695		
